<?xml version="1.0" standalone="no"?><!DOCTYPE svg PUBLIC "-//W3C//DTD SVG 1.1//EN" "http://www.w3.org/Graphics/SVG/1.1/DTD/svg11.dtd"><svg t="1568194383499" class="icon" viewBox="0 0 1024 1024" version="1.1" xmlns="http://www.w3.org/2000/svg" p-id="793" xmlns:xlink="http://www.w3.org/1999/xlink" width="200" height="200"><defs><style type="text/css"></style></defs><path d="M72.282 584.282c39.92 0 72.283-32.362 72.283-72.282 0-39.92-32.362-72.282-72.283-72.282C32.362 439.718 0 472.08 0 512c0 39.92 32.362 72.282 72.282 72.282z m879.436 0c39.92 0 72.282-32.362 72.282-72.282 0-39.92-32.362-72.282-72.282-72.282-39.92 0-72.283 32.362-72.283 72.282 0 39.92 32.362 72.282 72.283 72.282z m-512-512c0 39.92 32.362 72.283 72.282 72.283 39.92 0 72.282-32.362 72.282-72.283C584.282 32.362 551.92 0 512 0c-39.92 0-72.282 32.362-72.282 72.282z m0 879.436c0 39.92 32.362 72.282 72.282 72.282 39.92 0 72.282-32.362 72.282-72.282 0-39.92-32.362-72.283-72.282-72.283-39.92 0-72.282 32.362-72.282 72.283zM145.192 247.414c28.228 28.228 73.994 28.228 102.222 0 28.228-28.228 28.228-73.994 0-102.222-28.228-28.228-73.994-28.228-102.222 0-28.228 28.228-28.228 73.994 0 102.222zM767.046 869.27c28.228 28.228 73.995 28.228 102.223 0 28.228-28.228 28.228-73.995 0-102.223-28.228-28.228-73.995-28.228-102.223 0-28.228 28.228-28.228 73.995 0 102.223z m0-724.077c-28.228 28.228-28.228 73.994 0 102.222 28.228 28.228 73.995 28.228 102.223 0 28.228-28.228 28.228-73.994 0-102.222-28.228-28.228-73.995-28.228-102.223 0zM145.192 767.046c-28.228 28.228-28.228 73.995 0 102.223 28.228 28.228 73.994 28.228 102.222 0 28.228-28.228 28.228-73.995 0-102.223-28.228-28.228-73.994-28.228-102.222 0z" p-id="794"></path></svg>